<mxfile host="65bd71144e">
    <diagram id="-U0DWZhTMkHNCYkpkLXh" name="Page-1">
        <mxGraphModel dx="1770" dy="474" grid="1" gridSize="10" guides="1" tooltips="1" connect="1" arrows="1" fold="1" page="1" pageScale="1" pageWidth="850" pageHeight="1100" math="0" shadow="0">
            <root>
                <mxCell id="0"/>
                <mxCell id="1" parent="0"/>
                <mxCell id="2" value="foyer" style="rounded=0;whiteSpace=wrap;html=1;" vertex="1" parent="1">
                    <mxGeometry x="365" y="370" width="120" height="60" as="geometry"/>
                </mxCell>
                <mxCell id="3" value="living room" style="rounded=0;whiteSpace=wrap;html=1;" vertex="1" parent="1">
                    <mxGeometry x="120" y="270" width="205" height="90" as="geometry"/>
                </mxCell>
                <mxCell id="4" value="dining room" style="rounded=0;whiteSpace=wrap;html=1;" vertex="1" parent="1">
                    <mxGeometry x="525" y="270" width="205" height="90" as="geometry"/>
                </mxCell>
                <mxCell id="5" value="hallway" style="rounded=0;whiteSpace=wrap;html=1;" vertex="1" parent="1">
                    <mxGeometry x="365" y="80" width="120" height="290" as="geometry"/>
                </mxCell>
                <mxCell id="6" value="kitchen" style="rounded=0;whiteSpace=wrap;html=1;" vertex="1" parent="1">
                    <mxGeometry x="525" y="120" width="205" height="90" as="geometry"/>
                </mxCell>
                <mxCell id="7" value="" style="rounded=0;whiteSpace=wrap;html=1;" vertex="1" parent="1">
                    <mxGeometry x="612.5" y="210" width="30" height="60" as="geometry"/>
                </mxCell>
                <mxCell id="8" value="door 2" style="rounded=0;whiteSpace=wrap;html=1;" vertex="1" parent="1">
                    <mxGeometry x="485" y="310" width="40" height="30" as="geometry"/>
                </mxCell>
                <mxCell id="9" value="door 1" style="rounded=0;whiteSpace=wrap;html=1;" vertex="1" parent="1">
                    <mxGeometry x="325" y="310" width="40" height="30" as="geometry"/>
                </mxCell>
                <mxCell id="10" value="" style="rounded=0;whiteSpace=wrap;html=1;" vertex="1" parent="1">
                    <mxGeometry x="207.5" y="210" width="30" height="60" as="geometry"/>
                </mxCell>
                <mxCell id="11" value="door 4" style="rounded=0;whiteSpace=wrap;html=1;" vertex="1" parent="1">
                    <mxGeometry x="485" y="150" width="40" height="30" as="geometry"/>
                </mxCell>
                <mxCell id="12" value="library" style="rounded=0;whiteSpace=wrap;html=1;" vertex="1" parent="1">
                    <mxGeometry x="120" y="120" width="205" height="90" as="geometry"/>
                </mxCell>
                <mxCell id="13" value="door 3" style="rounded=0;whiteSpace=wrap;html=1;" vertex="1" parent="1">
                    <mxGeometry x="325" y="150" width="40" height="30" as="geometry"/>
                </mxCell>
                <mxCell id="14" value="door 3" style="rounded=0;whiteSpace=wrap;html=1;" vertex="1" parent="1">
                    <mxGeometry x="80" y="300" width="40" height="30" as="geometry"/>
                </mxCell>
                <mxCell id="15" value="stairs" style="rounded=0;whiteSpace=wrap;html=1;" vertex="1" parent="1">
                    <mxGeometry x="450" y="180" width="35" height="110" as="geometry"/>
                </mxCell>
                <mxCell id="16" value="bathroom" style="rounded=0;whiteSpace=wrap;html=1;" vertex="1" parent="1">
                    <mxGeometry x="-60" y="270" width="140" height="90" as="geometry"/>
                </mxCell>
            </root>
        </mxGraphModel>
    </diagram>
</mxfile>